<svg width="32" height="32" viewBox="0 0 32 32" fill="none" xmlns="http://www.w3.org/2000/svg">
  <!-- GitHub + Portfolio Symbol -->
  <g transform="translate(2, 2)">
    <!-- GitHub Icon (simplified) -->
    <path d="M8 1C3.58 1 0 4.58 0 9c0 3.54 2.29 6.53 5.47 7.59.4.06.55-.25.55-.55V14.5c-2.22.48-2.69-1.07-2.69-1.07-.37-.93-1.07-1.18-1.07-1.18-.87-.6.07-.59.07-.59.96.05 1.46.98 1.46.98.9 1.52 2.34 1.08 2.91.79.07-.62.27-1.19.63-1.62-2.22-.25-4.55-1.11-4.55-4.92 0-1.11.45-2 1.08-2.71-.1-.25-.47-1.27.08-2.64 0 0 .88-.28 2.8 1.02.82-.23 1.68-.35 2.55-.35.87 0 1.73.12 2.55.35 1.92-1.3 2.8-1.02 2.8-1.02.55 1.37.18 2.39.08 2.64.63.71 1.08 1.6 1.08 2.71 0 3.82-2.34 4.66-4.57 4.91.36.31.69.92.69 1.85V16c0 .3.19.58.67.5C17.71 15.53 20 12.54 20 9c0-4.42-3.58-8-8-8z" fill="#2563EB"/>
    
    <!-- Portfolio Icon (overlay) -->
    <rect x="10" y="10" width="8" height="8" rx="1" stroke="white" stroke-width="1.5" fill="none" opacity="0.9"/>
    <path d="M12 12h4M12 14h4M12 16h2" stroke="white" stroke-width="1.5" stroke-linecap="round" opacity="0.9"/>
  </g>
</svg> 