<svg width="200" height="48" viewBox="0 0 200 48" fill="none" xmlns="http://www.w3.org/2000/svg">
  <!-- GitHub Icon -->
  <g transform="translate(0, 4)">
    <path d="M12 2C6.48 2 2 6.48 2 12c0 4.42 2.87 8.17 6.84 9.5.5.08.66-.23.66-.5v-1.69c-2.77.6-3.36-1.34-3.36-1.34-.46-1.16-1.11-1.47-1.11-1.47-.91-.62.07-.6.07-.6 1 .07 1.53 1.03 1.53 1.03.87 1.52 2.34 1.07 2.91.82.09-.65.35-1.09.63-1.34-2.22-.25-4.55-1.11-4.55-4.92 0-1.11.38-2 1.03-2.71-.1-.25-.45-1.29.1-2.64 0 0 .84-.27 2.75 1.02.79-.22 1.65-.33 2.5-.33.85 0 1.71.11 2.5.33 1.91-1.29 2.75-1.02 2.75-1.02.55 1.35.2 2.39.1 2.64.65.71 1.03 1.6 1.03 2.71 0 3.82-2.34 4.66-4.57 4.91.36.31.69.92.69 1.85V21c0 .27.16.59.67.5C19.14 20.16 22 16.42 22 12c0-5.52-4.48-10-10-10z" fill="#2563EB"/>
  </g>
  
  <!-- Portfolio Icon -->
  <g transform="translate(24, 4)">
    <rect x="2" y="4" width="16" height="16" rx="2" stroke="#2563EB" stroke-width="2" fill="none"/>
    <path d="M6 8h8M6 12h8M6 16h4" stroke="#2563EB" stroke-width="2" stroke-linecap="round"/>
  </g>
  
  <!-- Text Logo -->
  <text x="52" y="32" font-family="Inter, sans-serif" font-size="24" font-weight="700" fill="#2563EB" letter-spacing="-0.025em">
    PortfolYO
  </text>
</svg> 