<svg width="200" height="200" viewBox="0 0 200 200" fill="none" xmlns="http://www.w3.org/2000/svg">
  <rect width="200" height="200" rx="24" fill="#F0F5FF"/>
  <!-- GitHub + Portfolio combined mark -->
  <g transform="translate(40,40)">
    <path d="M12 2C6.48 2 2 6.48 2 12c0 4.42 2.87 8.17 6.84 9.5.5.08.66-.23.66-.5v-1.69c-2.77.6-3.36-1.34-3.36-1.34-.46-1.16-1.11-1.47-1.11-1.47-.91-.62.07-.6.07-.6 1 .07 1.53 1.03 1.53 1.03.87 1.52 2.34 1.07 2.91.82.09-.65.35-1.09.63-1.34-2.22-.25-4.55-1.11-4.55-4.92 0-1.11.38-2 1.03-2.71-.1-.25-.45-1.29.1-2.64 0 0 .84-.27 2.75 1.02.79-.22 1.65-.33 2.5-.33.85 0 1.71.11 2.5.33 1.91-1.29 2.75-1.02 2.75-1.02.55 1.35.2 2.39.1 2.64.65.71 1.03 1.6 1.03 2.71 0 3.82-2.34 4.66-4.57 4.91.36.31.69.92.69 1.85V21c0 .27.16.59.67.5C19.14 20.16 22 16.42 22 12c0-5.52-4.48-10-10-10z" fill="#2563EB"/>
  </g>
  <g transform="translate(100,44)">
    <rect x="2" y="4" width="56" height="56" rx="8" stroke="#2563EB" stroke-width="6" fill="none"/>
    <path d="M16 24h32M16 36h24M16 48h14" stroke="#2563EB" stroke-width="6" stroke-linecap="round"/>
  </g>
</svg>
