<svg width="256" height="256" viewBox="0 0 256 256" fill="none" xmlns="http://www.w3.org/2000/svg">
<rect x="0.5" y="0.5" width="255" height="255" rx="51.5" fill="white" stroke="white"/>
<mask id="path-2-outside-1_1_4" maskUnits="userSpaceOnUse" x="53" y="77" width="153" height="83" fill="black">
<rect fill="white" x="53" y="77" width="153" height="83"/>
<path d="M79.22 157V134.67C73.8667 133.937 69.32 132.213 65.58 129.5C61.84 126.713 58.98 123.12 57 118.72C55.02 114.32 54.03 109.37 54.03 103.87V80H64.59V104.75C64.59 108.563 65.36 112.083 66.9 115.31C68.5133 118.463 70.7867 121.03 73.72 123.01C76.7267 124.917 80.3567 125.87 84.61 125.87C88.8633 125.87 92.4567 124.917 95.39 123.01C98.3967 121.03 100.67 118.463 102.21 115.31C103.75 112.083 104.52 108.563 104.52 104.75V80H115.08V103.87C115.08 109.37 114.09 114.32 112.11 118.72C110.13 123.12 107.233 126.713 103.42 129.5C99.68 132.287 95.1333 134.01 89.78 134.67V157H79.22ZM164.459 158.43C158.372 158.43 152.872 157.403 147.959 155.35C143.045 153.223 138.829 150.327 135.309 146.66C131.862 142.993 129.185 138.74 127.279 133.9C125.372 129.06 124.419 123.89 124.419 118.39C124.419 112.963 125.372 107.83 127.279 102.99C129.185 98.15 131.862 93.8967 135.309 90.23C138.829 86.5633 143.045 83.7033 147.959 81.65C152.872 79.5967 158.372 78.57 164.459 78.57C170.545 78.57 176.045 79.5967 180.959 81.65C185.872 83.7033 190.052 86.5633 193.499 90.23C197.019 93.8967 199.732 98.15 201.639 102.99C203.545 107.83 204.499 113 204.499 118.5C204.499 123.927 203.545 129.06 201.639 133.9C199.732 138.74 197.019 142.993 193.499 146.66C190.052 150.327 185.872 153.223 180.959 155.35C176.045 157.403 170.545 158.43 164.459 158.43ZM164.459 149.08C168.639 149.08 172.525 148.31 176.119 146.77C179.712 145.23 182.829 143.067 185.469 140.28C188.182 137.493 190.272 134.267 191.739 130.6C193.205 126.86 193.939 122.79 193.939 118.39C193.939 114.063 193.205 110.03 191.739 106.29C190.272 102.55 188.219 99.3233 185.579 96.61C182.939 93.8233 179.785 91.6967 176.119 90.23C172.525 88.69 168.639 87.92 164.459 87.92C160.205 87.92 156.282 88.69 152.689 90.23C149.095 91.6967 145.979 93.8233 143.339 96.61C140.699 99.3233 138.645 102.55 137.179 106.29C135.712 110.03 134.979 114.1 134.979 118.5C134.979 122.827 135.712 126.86 137.179 130.6C138.645 134.267 140.699 137.493 143.339 140.28C145.979 143.067 149.095 145.23 152.689 146.77C156.282 148.31 160.205 149.08 164.459 149.08Z"/>
</mask>
<path d="M79.22 157V134.67C73.8667 133.937 69.32 132.213 65.58 129.5C61.84 126.713 58.98 123.12 57 118.72C55.02 114.32 54.03 109.37 54.03 103.87V80H64.59V104.75C64.59 108.563 65.36 112.083 66.9 115.31C68.5133 118.463 70.7867 121.03 73.72 123.01C76.7267 124.917 80.3567 125.87 84.61 125.87C88.8633 125.87 92.4567 124.917 95.39 123.01C98.3967 121.03 100.67 118.463 102.21 115.31C103.75 112.083 104.52 108.563 104.52 104.75V80H115.08V103.87C115.08 109.37 114.09 114.32 112.11 118.72C110.13 123.12 107.233 126.713 103.42 129.5C99.68 132.287 95.1333 134.01 89.78 134.67V157H79.22ZM164.459 158.43C158.372 158.43 152.872 157.403 147.959 155.35C143.045 153.223 138.829 150.327 135.309 146.66C131.862 142.993 129.185 138.74 127.279 133.9C125.372 129.06 124.419 123.89 124.419 118.39C124.419 112.963 125.372 107.83 127.279 102.99C129.185 98.15 131.862 93.8967 135.309 90.23C138.829 86.5633 143.045 83.7033 147.959 81.65C152.872 79.5967 158.372 78.57 164.459 78.57C170.545 78.57 176.045 79.5967 180.959 81.65C185.872 83.7033 190.052 86.5633 193.499 90.23C197.019 93.8967 199.732 98.15 201.639 102.99C203.545 107.83 204.499 113 204.499 118.5C204.499 123.927 203.545 129.06 201.639 133.9C199.732 138.74 197.019 142.993 193.499 146.66C190.052 150.327 185.872 153.223 180.959 155.35C176.045 157.403 170.545 158.43 164.459 158.43ZM164.459 149.08C168.639 149.08 172.525 148.31 176.119 146.77C179.712 145.23 182.829 143.067 185.469 140.28C188.182 137.493 190.272 134.267 191.739 130.6C193.205 126.86 193.939 122.79 193.939 118.39C193.939 114.063 193.205 110.03 191.739 106.29C190.272 102.55 188.219 99.3233 185.579 96.61C182.939 93.8233 179.785 91.6967 176.119 90.23C172.525 88.69 168.639 87.92 164.459 87.92C160.205 87.92 156.282 88.69 152.689 90.23C149.095 91.6967 145.979 93.8233 143.339 96.61C140.699 99.3233 138.645 102.55 137.179 106.29C135.712 110.03 134.979 114.1 134.979 118.5C134.979 122.827 135.712 126.86 137.179 130.6C138.645 134.267 140.699 137.493 143.339 140.28C145.979 143.067 149.095 145.23 152.689 146.77C156.282 148.31 160.205 149.08 164.459 149.08Z" fill="black"/>
<path d="M79.22 157H78.22V158H79.22V157ZM79.22 134.67H80.22V133.798L79.3557 133.679L79.22 134.67ZM65.58 129.5L64.9825 130.302L64.9928 130.309L65.58 129.5ZM57 118.72L56.0881 119.13L57 118.72ZM54.03 80V79H53.03V80H54.03ZM64.59 80H65.59V79H64.59V80ZM66.9 115.31L65.9975 115.741L66.0035 115.753L66.0098 115.765L66.9 115.31ZM73.72 123.01L73.1605 123.839L73.1724 123.847L73.1845 123.855L73.72 123.01ZM95.39 123.01L95.935 123.848L95.94 123.845L95.39 123.01ZM102.21 115.31L103.109 115.749L103.112 115.741L102.21 115.31ZM104.52 80V79H103.52V80H104.52ZM115.08 80H116.08V79H115.08V80ZM103.42 129.5L102.83 128.693L102.823 128.698L103.42 129.5ZM89.78 134.67L89.6576 133.678L88.78 133.786V134.67H89.78ZM89.78 157V158H90.78V157H89.78ZM79.22 157H80.22V134.67H79.22H78.22V157H79.22ZM79.22 134.67L79.3557 133.679C74.1378 132.964 69.753 131.292 66.1672 128.691L65.58 129.5L64.9928 130.309C68.887 133.135 73.5955 134.909 79.0843 135.661L79.22 134.67ZM65.58 129.5L66.1775 128.698C62.5787 126.017 59.8246 122.56 57.9119 118.31L57 118.72L56.0881 119.13C58.1354 123.68 61.1013 127.41 64.9825 130.302L65.58 129.5ZM57 118.72L57.9119 118.31C55.9976 114.056 55.03 109.248 55.03 103.87H54.03H53.03C53.03 109.492 54.0424 114.584 56.0881 119.13L57 118.72ZM54.03 103.87H55.03V80H54.03H53.03V103.87H54.03ZM54.03 80V81H64.59V80V79H54.03V80ZM64.59 80H63.59V104.75H64.59H65.59V80H64.59ZM64.59 104.75H63.59C63.59 108.702 64.3891 112.371 65.9975 115.741L66.9 115.31L67.8025 114.879C66.3309 111.796 65.59 108.424 65.59 104.75H64.59ZM66.9 115.31L66.0098 115.765C67.7 119.069 70.087 121.764 73.1605 123.839L73.72 123.01L74.2795 122.181C71.4863 120.296 69.3267 117.858 67.7902 114.855L66.9 115.31ZM73.72 123.01L73.1845 123.855C76.3801 125.881 80.2043 126.87 84.61 126.87V125.87V124.87C80.509 124.87 77.0732 123.952 74.2555 122.165L73.72 123.01ZM84.61 125.87V126.87C89.0147 126.87 92.8074 125.881 95.935 123.848L95.39 123.01L94.845 122.172C92.1059 123.952 88.7119 124.87 84.61 124.87V125.87ZM95.39 123.01L95.94 123.845C99.0922 121.769 101.488 119.067 103.109 115.749L102.21 115.31L101.311 114.871C99.8521 117.859 97.7011 120.291 94.84 122.175L95.39 123.01ZM102.21 115.31L103.112 115.741C104.721 112.371 105.52 108.702 105.52 104.75H104.52H103.52C103.52 108.424 102.779 111.796 101.308 114.879L102.21 115.31ZM104.52 104.75H105.52V80H104.52H103.52V104.75H104.52ZM104.52 80V81H115.08V80V79H104.52V80ZM115.08 80H114.08V103.87H115.08H116.08V80H115.08ZM115.08 103.87H114.08C114.08 109.248 113.112 114.056 111.198 118.31L112.11 118.72L113.022 119.13C115.068 114.584 116.08 109.492 116.08 103.87H115.08ZM112.11 118.72L111.198 118.31C109.288 122.555 106.5 126.01 102.83 128.693L103.42 129.5L104.01 130.307C107.966 127.416 110.972 123.685 113.022 119.13L112.11 118.72ZM103.42 129.5L102.823 128.698C99.2421 131.366 94.866 133.035 89.6576 133.678L89.78 134.67L89.9024 135.662C95.4007 134.985 100.118 133.207 104.017 130.302L103.42 129.5ZM89.78 134.67H88.78V157H89.78H90.78V134.67H89.78ZM89.78 157V156H79.22V157V158H89.78V157ZM147.959 155.35L147.562 156.268L147.573 156.273L147.959 155.35ZM135.309 146.66L134.58 147.345L134.587 147.353L135.309 146.66ZM127.279 133.9L126.348 134.267L127.279 133.9ZM127.279 102.99L126.348 102.623L127.279 102.99ZM135.309 90.23L134.587 89.5374L134.58 89.5451L135.309 90.23ZM147.959 81.65L147.573 80.7273L147.959 81.65ZM180.959 81.65L181.344 80.7273L180.959 81.65ZM193.499 90.23L192.77 90.9149L192.777 90.9225L193.499 90.23ZM201.639 102.99L200.708 103.357L201.639 102.99ZM201.639 133.9L200.708 133.533L201.639 133.9ZM193.499 146.66L192.777 145.967L192.77 145.975L193.499 146.66ZM180.959 155.35L181.344 156.273L181.356 156.268L180.959 155.35ZM176.119 146.77L175.725 145.851L176.119 146.77ZM185.469 140.28L184.752 139.582L184.743 139.592L185.469 140.28ZM191.739 130.6L192.667 130.971L192.67 130.965L191.739 130.6ZM191.739 106.29L192.67 105.925L191.739 106.29ZM185.579 96.61L184.853 97.2978L184.862 97.3074L185.579 96.61ZM176.119 90.23L175.725 91.1491L175.736 91.1539L175.747 91.1585L176.119 90.23ZM152.689 90.23L153.067 91.1558L153.075 91.1526L153.083 91.1491L152.689 90.23ZM143.339 96.61L144.056 97.3074L144.065 97.2977L143.339 96.61ZM137.179 130.6L136.248 130.965L136.25 130.971L137.179 130.6ZM143.339 140.28L144.065 139.592L143.339 140.28ZM152.689 146.77L153.083 145.851L152.689 146.77ZM164.459 158.43V157.43C158.486 157.43 153.119 156.423 148.344 154.427L147.959 155.35L147.573 156.273C152.625 158.384 158.259 159.43 164.459 159.43V158.43ZM147.959 155.35L148.356 154.432C143.558 152.356 139.453 149.533 136.03 145.967L135.309 146.66L134.587 147.353C138.204 151.12 142.533 154.091 147.562 156.268L147.959 155.35ZM135.309 146.66L136.037 145.975C132.681 142.404 130.071 138.26 128.209 133.533L127.279 133.9L126.348 134.267C128.3 139.22 131.044 143.583 134.58 147.345L135.309 146.66ZM127.279 133.9L128.209 133.533C126.351 128.817 125.419 123.772 125.419 118.39H124.419H123.419C123.419 124.008 124.393 129.303 126.348 134.267L127.279 133.9ZM124.419 118.39H125.419C125.419 113.083 126.351 108.075 128.209 103.357L127.279 102.99L126.348 102.623C124.394 107.585 123.419 112.843 123.419 118.39H124.419ZM127.279 102.99L128.209 103.357C130.071 98.6304 132.681 94.4861 136.037 90.9149L135.309 90.23L134.58 89.5451C131.044 93.3073 128.3 97.6696 126.348 102.623L127.279 102.99ZM135.309 90.23L136.03 90.9225C139.451 87.3595 143.551 84.5757 148.344 82.5727L147.959 81.65L147.573 80.7273C142.54 82.831 138.207 85.7672 134.587 89.5375L135.309 90.23ZM147.959 81.65L148.344 82.5727C153.119 80.5772 158.486 79.57 164.459 79.57V78.57V77.57C158.259 77.57 152.625 78.6162 147.573 80.7273L147.959 81.65ZM164.459 78.57V79.57C170.432 79.57 175.798 80.5772 180.573 82.5727L180.959 81.65L181.344 80.7273C176.293 78.6162 170.659 77.57 164.459 77.57V78.57ZM180.959 81.65L180.573 82.5727C185.364 84.575 189.425 87.3566 192.77 90.9149L193.499 90.23L194.227 89.5451C190.679 85.77 186.38 82.8317 181.344 80.7273L180.959 81.65ZM193.499 90.23L192.777 90.9225C196.205 94.493 198.848 98.6349 200.708 103.357L201.639 102.99L202.569 102.623C200.616 97.6651 197.833 93.3004 194.22 89.5375L193.499 90.23ZM201.639 102.99L200.708 103.357C202.567 108.073 203.499 113.118 203.499 118.5H204.499H205.499C205.499 112.882 204.524 107.587 202.569 102.623L201.639 102.99ZM204.499 118.5H203.499C203.499 123.807 202.567 128.815 200.708 133.533L201.639 133.9L202.569 134.267C204.524 129.305 205.499 124.047 205.499 118.5H204.499ZM201.639 133.9L200.708 133.533C198.848 138.255 196.205 142.397 192.777 145.967L193.499 146.66L194.22 147.353C197.833 143.59 200.616 139.225 202.569 134.267L201.639 133.9ZM193.499 146.66L192.77 145.975C189.423 149.536 185.358 152.356 180.562 154.432L180.959 155.35L181.356 156.268C186.386 154.09 190.681 151.117 194.227 147.345L193.499 146.66ZM180.959 155.35L180.573 154.427C175.798 156.423 170.432 157.43 164.459 157.43V158.43V159.43C170.659 159.43 176.293 158.384 181.344 156.273L180.959 155.35ZM164.459 149.08V150.08C168.765 150.08 172.786 149.286 176.513 147.689L176.119 146.77L175.725 145.851C172.265 147.334 168.513 148.08 164.459 148.08V149.08ZM176.119 146.77L176.513 147.689C180.229 146.096 183.459 143.855 186.195 140.968L185.469 140.28L184.743 139.592C182.198 142.278 179.195 144.364 175.725 145.851L176.119 146.77ZM185.469 140.28L186.185 140.978C188.991 138.096 191.153 134.758 192.667 130.971L191.739 130.6L190.81 130.229C189.392 133.776 187.373 136.891 184.752 139.582L185.469 140.28ZM191.739 130.6L192.67 130.965C194.186 127.098 194.939 122.903 194.939 118.39H193.939H192.939C192.939 122.677 192.225 126.622 190.808 130.235L191.739 130.6ZM193.939 118.39H194.939C194.939 113.948 194.186 109.79 192.67 105.925L191.739 106.29L190.808 106.655C192.226 110.27 192.939 114.179 192.939 118.39H193.939ZM191.739 106.29L192.67 105.925C191.158 102.069 189.034 98.7271 186.296 95.9126L185.579 96.61L184.862 97.3074C187.404 99.9195 189.387 103.031 190.808 106.655L191.739 106.29ZM185.579 96.61L186.305 95.9222C183.562 93.0276 180.287 90.8203 176.49 89.3015L176.119 90.23L175.747 91.1585C179.284 92.5731 182.315 94.6191 184.853 97.2977L185.579 96.61ZM176.119 90.23L176.513 89.3108C172.786 87.7139 168.765 86.92 164.459 86.92V87.92V88.92C168.513 88.92 172.265 89.6661 175.725 91.1491L176.119 90.23ZM164.459 87.92V86.92C160.082 86.92 156.023 87.713 152.295 89.3108L152.689 90.23L153.083 91.1491C156.541 89.667 160.329 88.92 164.459 88.92V87.92ZM152.689 90.23L152.311 89.3041C148.587 90.8239 145.352 93.0312 142.613 95.9223L143.339 96.61L144.065 97.2977C146.606 94.6155 149.604 92.5694 153.067 91.1558L152.689 90.23ZM143.339 96.61L142.622 95.9126C139.884 98.7271 137.76 102.069 136.248 105.925L137.179 106.29L138.11 106.655C139.531 103.031 141.514 99.9195 144.056 97.3074L143.339 96.61ZM137.179 106.29L136.248 105.925C134.731 109.792 133.979 113.987 133.979 118.5H134.979H135.979C135.979 114.213 136.693 110.268 138.11 106.655L137.179 106.29ZM134.979 118.5H133.979C133.979 122.942 134.732 127.1 136.248 130.965L137.179 130.6L138.11 130.235C136.692 126.62 135.979 122.711 135.979 118.5H134.979ZM137.179 130.6L136.25 130.971C137.763 134.752 139.883 138.087 142.613 140.968L143.339 140.28L144.065 139.592C141.514 136.9 139.528 133.781 138.107 130.229L137.179 130.6ZM143.339 140.28L142.613 140.968C145.348 143.855 148.579 146.096 152.295 147.689L152.689 146.77L153.083 145.851C149.612 144.364 146.609 142.278 144.065 139.592L143.339 140.28ZM152.689 146.77L152.295 147.689C156.023 149.287 160.082 150.08 164.459 150.08V149.08V148.08C160.329 148.08 156.541 147.333 153.083 145.851L152.689 146.77Z" fill="white" mask="url(#path-2-outside-1_1_4)"/>
</svg>
